<?xml version="1.0" standalone="no"?>
<!DOCTYPE svg PUBLIC "-//W3C//DTD SVG 20010904//EN"
 "http://www.w3.org/TR/2001/REC-SVG-20010904/DTD/svg10.dtd">
<svg version="1.0" xmlns="http://www.w3.org/2000/svg"
 width="700.000000pt" height="700.000000pt" viewBox="0 0 700.000000 700.000000"
 preserveAspectRatio="xMidYMid meet">
<metadata>
Created by potrace 1.11, written by Peter Selinger 2001-2013
</metadata>
<g transform="translate(0.000000,700.000000) scale(0.100000,-0.100000)"
fill="#000000" stroke="none">
<path d="M1882 6984 c-362 -54 -684 -198 -986 -440 -428 -344 -785 -900 -860
-1344 -3 -19 -8 -46 -11 -60 -20 -104 -27 -399 -13 -550 43 -445 235 -954 551
-1454 31 -50 188 -277 197 -286 3 -3 25 -31 49 -62 l43 -58 37 28 c118 88 141
107 141 114 0 4 -38 59 -84 120 -315 425 -542 879 -644 1293 -19 75 -33 141
-37 175 -1 8 -5 29 -8 45 -28 132 -29 408 -3 590 52 363 289 791 614 1114 195
193 423 347 657 443 53 22 228 73 285 84 25 4 47 8 50 9 3 1 37 5 75 10 230
27 436 -7 648 -108 219 -104 406 -246 655 -497 90 -90 176 -173 190 -182 31
-20 93 -23 125 -6 12 6 99 87 192 179 195 192 287 271 435 370 236 159 499
252 715 252 49 0 228 -13 235 -18 3 -2 22 -6 42 -9 117 -18 293 -78 432 -147
410 -203 773 -581 989 -1029 93 -194 144 -364 164 -555 13 -127 7 -380 -12
-490 -34 -191 -51 -262 -100 -415 -111 -352 -338 -778 -593 -1115 -78 -103
-251 -313 -305 -371 -81 -87 -81 -78 12 -165 77 -72 84 -76 100 -60 9 9 50 55
91 102 385 438 663 879 844 1336 146 368 207 682 201 1023 -2 96 -6 186 -8
200 -2 14 -8 50 -12 80 -5 30 -9 57 -10 60 -1 3 -5 23 -9 45 -8 43 -14 62 -47
170 -90 290 -306 642 -560 909 -287 302 -637 521 -981 616 -91 25 -95 26 -218
46 -134 22 -443 22 -479 0 -3 -2 -24 -7 -46 -10 -70 -11 -245 -75 -354 -129
-228 -113 -458 -290 -694 -533 l-79 -81 -133 132 c-73 73 -155 150 -181 171
-27 21 -55 45 -62 51 -31 29 -134 104 -220 161 -168 110 -377 200 -557 238
-101 21 -349 25 -463 8z"/>
<path d="M2188 6178 c-18 -3 -43 -19 -56 -34 -61 -70 -597 -833 -608 -864 -10
-28 -10 -41 2 -69 15 -37 229 -258 280 -291 63 -40 81 -33 297 113 l148 100
134 0 c125 0 137 -2 158 -21 l23 -22 0 -636 -1 -635 -90 -38 c-512 -215 -935
-561 -1210 -991 -144 -224 -265 -531 -314 -796 -31 -163 -31 -162 -38 -269
-16 -234 -5 -444 36 -661 11 -54 18 -100 16 -102 -1 -1 -61 32 -133 75 l-131
78 -2 220 c-1 251 -2 262 -33 330 -131 284 -545 258 -646 -41 -20 -58 -20 -79
-18 -517 l3 -455 23 -25 c21 -22 887 -569 964 -609 31 -16 208 -17 2683 -18
l2650 0 261 130 c258 129 261 131 287 178 49 91 97 241 114 358 16 105 8 314
-15 409 -12 50 -26 99 -31 110 -5 11 -21 47 -35 79 -120 272 -389 491 -706
576 -25 7 -54 15 -65 18 -11 3 -309 7 -663 9 -629 2 -643 3 -664 23 -12 11
-20 22 -17 24 2 2 39 20 83 41 73 35 197 119 222 151 9 11 49 3 239 -52 125
-36 229 -63 232 -61 10 11 62 212 55 218 -4 4 -83 28 -177 55 -93 26 -171 48
-173 50 -2 1 8 25 22 53 61 119 70 158 71 299 1 73 4 135 7 138 3 2 63 30 134
60 71 31 131 58 133 60 3 3 -74 197 -84 212 -1 1 -24 -7 -51 -19 -27 -11 -69
-29 -94 -39 l-45 -18 0 62 -1 61 -183 305 c-100 168 -192 315 -203 327 -24 26
-67 37 -108 28 -20 -4 -81 -59 -199 -176 -153 -152 -173 -169 -204 -169 l-34
0 0 733 0 732 81 83 82 83 74 3 73 2 156 -104 c182 -121 201 -132 238 -132 50
0 83 35 207 221 130 195 147 229 136 269 -4 14 -118 192 -254 397 -195 292
-254 374 -278 384 -20 8 -93 12 -221 13 -267 1 -240 19 -376 -253 l-108 -216
-626 1 c-345 0 -628 2 -630 5 -2 2 -50 96 -106 209 -57 113 -110 213 -118 222
-9 10 -32 21 -52 24 -47 9 -481 11 -523 2z m527 -434 c55 -113 113 -217 128
-232 l28 -27 735 -1 c667 -1 738 1 766 16 26 13 50 55 141 233 l109 217 107 0
108 0 191 -288 c106 -158 192 -291 192 -296 0 -10 -107 -173 -118 -180 -4 -2
-50 25 -102 61 -181 123 -166 118 -325 119 -77 0 -152 -3 -166 -8 -27 -9 -311
-290 -308 -305 1 -4 1 -356 0 -780 l-1 -773 -151 0 -151 0 -170 170 c-109 108
-181 171 -198 175 -73 16 -118 -18 -184 -140 -6 -11 -78 -132 -160 -269 -135
-224 -149 -253 -152 -300 -1 -28 -3 -56 -3 -63 -1 -7 -37 4 -93 28 -50 21 -92
38 -93 36 -12 -19 -85 -195 -85 -205 0 -5 61 -35 135 -66 74 -32 135 -61 136
-65 0 -3 2 -67 3 -141 2 -127 4 -139 34 -210 18 -41 48 -101 67 -133 19 -32
35 -61 35 -65 0 -4 -91 -40 -201 -81 -110 -41 -201 -77 -203 -80 -6 -10 69
-204 80 -208 6 -2 118 37 250 87 131 49 242 90 245 90 4 0 46 -24 93 -54 82
-52 235 -116 277 -116 11 0 19 -7 20 -17 0 -10 1 -171 2 -358 l1 -340 -345 -5
-345 -5 -2 -112 c-1 -62 2 -114 6 -114 4 -1 156 -3 337 -4 182 -1 335 -3 340
-4 8 -1 12 -508 6 -677 -1 -21 -5 -21 -113 -20 l-113 1 -12 69 c-31 180 -147
314 -328 376 -37 13 -88 18 -205 19 -85 1 -155 3 -156 4 -1 1 -5 38 -9 82 -38
450 -354 821 -796 934 -57 15 -130 24 -225 28 l-141 6 0 -117 c0 -77 4 -116
11 -117 6 0 58 -2 116 -4 177 -6 295 -42 435 -133 156 -100 277 -261 334 -442
28 -90 33 -127 36 -268 4 -131 11 -156 59 -188 20 -13 62 -16 241 -17 188 -1
222 -3 258 -20 76 -34 131 -104 139 -177 l3 -35 -1090 -1 -1090 0 -400 249
c-220 137 -412 258 -426 268 l-25 18 0 393 c1 360 3 395 19 419 31 46 91 62
145 40 64 -27 66 -37 68 -332 2 -273 5 -297 43 -326 15 -11 130 -83 174 -108
10 -5 100 -59 200 -120 100 -60 202 -120 227 -132 49 -25 91 -23 125 5 46 39
56 73 38 132 -45 148 -74 255 -88 330 -19 94 -20 97 -29 190 -4 36 -9 79 -12
95 -6 42 -5 311 1 365 16 134 28 214 46 290 75 325 220 614 444 890 27 33 212
218 255 255 210 180 489 342 760 443 85 32 109 46 128 72 l22 33 0 723 c0 478
-4 732 -10 750 -12 29 -92 116 -150 162 l-35 27 -200 1 c-138 1 -209 -2 -230
-11 -16 -6 -88 -51 -159 -99 -72 -47 -132 -86 -136 -86 -3 0 -25 21 -50 46
-32 34 -41 49 -34 60 5 7 115 162 244 344 l235 330 170 -1 170 0 100 -205z
m975 -2367 c52 -52 101 -93 122 -100 24 -8 143 -12 400 -11 335 0 369 2 395
19 15 10 76 65 134 124 148 149 131 141 170 79 18 -29 39 -64 47 -78 7 -13 49
-84 93 -157 l81 -132 -1 -78 c-1 -62 -4 -79 -18 -87 -10 -6 -94 -44 -188 -84
-93 -40 -173 -76 -177 -81 -6 -5 62 -188 78 -209 2 -4 223 87 277 113 31 15
30 16 27 -79 -3 -76 -76 -226 -110 -226 -8 0 -53 12 -99 25 -47 14 -90 25 -96
25 -6 0 -24 -44 -39 -97 -16 -54 -31 -103 -33 -110 -3 -7 12 -16 37 -23 39
-10 41 -13 24 -24 -38 -26 -151 -65 -234 -80 -75 -14 -89 -20 -116 -50 -29
-34 -32 -47 -25 -114 2 -19 260 -279 293 -295 22 -11 155 -13 670 -12 492 0
657 -2 703 -12 152 -33 326 -127 433 -235 204 -203 273 -489 193 -799 -38
-147 -31 -140 -251 -252 l-195 -100 -532 -1 c-472 -2 -533 0 -539 14 -3 8 -23
65 -43 125 -36 106 -38 115 -39 257 l-1 146 75 114 c95 142 99 146 141 154 44
8 78 -7 103 -48 24 -40 21 -54 -38 -178 -64 -133 -61 -153 42 -258 95 -99 75
-94 419 -94 187 0 302 4 306 10 5 8 6 122 2 205 -1 16 -21 17 -271 17 -219 0
-272 3 -276 14 -3 7 6 37 19 67 40 87 47 116 42 187 -4 76 -19 118 -64 179
-110 151 -337 179 -477 59 -37 -32 -200 -260 -237 -333 -14 -27 -17 -65 -17
-227 0 -180 2 -201 25 -278 14 -46 30 -91 35 -100 6 -10 10 -21 10 -26 0 -4
-94 -8 -210 -8 l-210 0 0 408 0 408 -117 0 -118 0 0 -407 0 -408 -172 -1 c-95
0 -173 2 -174 5 0 4 -2 404 -2 891 -2 647 -5 890 -14 905 -23 40 -51 55 -132
70 -96 19 -197 54 -184 65 4 4 36 17 71 30 34 12 62 25 62 28 0 14 -73 203
-81 208 -5 2 -30 -4 -56 -15 -26 -11 -88 -34 -137 -52 l-89 -33 -29 35 c-16
19 -47 70 -69 115 -32 64 -41 93 -43 143 -1 34 1 64 5 67 5 3 72 -22 151 -56
78 -33 145 -57 149 -52 14 14 89 193 85 201 -3 4 -92 44 -198 90 l-193 82 1
79 2 78 117 199 c65 109 123 204 128 211 11 14 21 6 177 -151z"/>
<path d="M3034 4901 l1 -116 115 0 115 0 1 113 c1 61 -1 113 -5 113 -3 1 -56
3 -117 4 l-110 3 0 -117z"/>
<path d="M3741 5010 c-8 -4 -11 -42 -9 -116 l3 -109 115 -1 116 -1 0 113 c1
63 -2 115 -5 115 -26 6 -211 5 -220 -1z"/>
<path d="M3268 4533 c-2 -10 -3 -63 -2 -118 l1 -99 224 -1 c123 0 229 3 234 6
8 6 12 168 6 222 -1 4 -104 7 -230 7 -210 0 -229 -1 -233 -17z"/>
<path d="M3753 3032 c-22 -3 -22 -6 -20 -115 l2 -112 116 -3 116 -3 -1 117 -1
117 -95 1 c-52 1 -105 0 -117 -2z"/>
<path d="M4440 3025 c-4 -5 -7 -57 -6 -115 l1 -105 116 -3 115 -3 0 117 -1
117 -108 1 c-62 1 -112 -3 -117 -9z"/>
<path d="M4091 2680 c-5 -3 -8 -56 -8 -117 l0 -113 117 0 116 0 0 115 c0 63
-2 115 -5 116 -23 4 -214 3 -220 -1z"/>
</g>
</svg>
